<?xml version="1.0" standalone="no"?>
<!DOCTYPE svg PUBLIC "-//W3C//DTD SVG 20010904//EN"
 "http://www.w3.org/TR/2001/REC-SVG-20010904/DTD/svg10.dtd">
<svg version="1.0" xmlns="http://www.w3.org/2000/svg"
 width="1617.000000pt" height="1617.000000pt" viewBox="0 0 1617.000000 1617.000000"
 preserveAspectRatio="xMidYMid meet">
<metadata>
Created by potrace 1.11, written by Peter Selinger 2001-2013
</metadata>
<g transform="translate(0.000000,1617.000000) scale(0.100000,-0.100000)"
fill="#000000" stroke="none">
<path d="M3960 14732 c0 -4 -33 -8 -73 -8 -124 -2 -217 -8 -217 -14 0 -3 -24
-5 -53 -6 -53 0 -171 -10 -217 -19 -14 -2 -43 -6 -65 -9 -22 -3 -56 -8 -75
-11 -19 -3 -51 -7 -70 -10 -19 -3 -46 -7 -60 -10 -14 -3 -36 -7 -50 -10 -14
-2 -36 -7 -50 -10 -14 -2 -36 -7 -50 -9 -14 -3 -36 -7 -50 -10 -57 -13 -90
-18 -93 -15 -2 2 -11 -2 -20 -10 -10 -7 -17 -11 -17 -8 0 3 -24 -1 -52 -9 -29
-8 -64 -17 -78 -20 -37 -8 -43 -10 -60 -17 -12 -5 -68 -21 -112 -33 -5 -1 -9
-2 -10 -4 -2 -1 -10 -3 -18 -5 -17 -3 -186 -61 -210 -72 -8 -3 -17 -7 -20 -8
-40 -14 -196 -78 -222 -91 -15 -8 -30 -14 -33 -14 -3 0 -32 -13 -65 -30 -33
-17 -63 -30 -66 -29 -4 0 -10 -3 -13 -8 -3 -4 -31 -20 -61 -36 -30 -15 -73
-39 -95 -52 -22 -14 -47 -28 -55 -31 -35 -16 -300 -196 -300 -205 0 -5 -5 -9
-11 -9 -21 0 -208 -160 -328 -281 -216 -216 -394 -455 -522 -699 -19 -36 -37
-66 -41 -68 -5 -2 -8 -12 -8 -22 0 -10 -4 -21 -9 -25 -5 -3 -15 -22 -22 -43
-6 -20 -15 -39 -18 -42 -8 -7 -71 -164 -71 -178 0 -7 -5 -12 -12 -12 -6 0 -9
-3 -6 -6 7 -6 -29 -113 -43 -130 -5 -6 -6 -13 -4 -16 3 -3 -1 -25 -9 -50 -15
-44 -65 -241 -72 -288 -3 -14 -9 -47 -14 -75 -5 -27 -12 -70 -16 -95 -3 -25
-8 -56 -10 -70 -11 -78 -25 -262 -28 -371 -2 -47 -6 -91 -10 -97 -4 -7 -3 -12
1 -12 10 0 10 -100 0 -116 -3 -6 -3 -14 0 -18 4 -4 8 -26 9 -50 3 -67 14 -228
18 -261 3 -17 7 -57 10 -90 3 -33 8 -69 10 -80 2 -11 7 -42 10 -70 6 -47 14
-94 22 -140 3 -11 6 -33 9 -50 3 -16 8 -41 10 -55 3 -14 7 -36 10 -50 2 -14 9
-43 14 -65 5 -22 13 -53 17 -70 4 -16 9 -37 11 -45 2 -8 5 -24 7 -35 1 -12 10
-46 19 -78 10 -31 24 -83 33 -114 9 -32 37 -123 62 -203 25 -80 47 -147 47
-150 1 -3 7 -18 14 -34 6 -16 13 -36 15 -45 2 -9 9 -29 15 -46 7 -16 26 -64
41 -105 16 -41 35 -91 44 -111 8 -20 12 -39 9 -43 -4 -3 -1 -6 5 -6 7 0 12 -4
12 -10 0 -5 11 -34 25 -64 14 -30 25 -57 25 -60 0 -2 16 -40 36 -83 65 -140
77 -168 76 -175 -1 -5 3 -8 8 -8 6 0 10 -9 10 -20 0 -11 5 -20 10 -20 6 0 10
-5 10 -12 0 -11 80 -178 90 -188 3 -3 25 -45 50 -95 25 -49 47 -92 50 -95 3
-3 12 -18 20 -35 8 -16 17 -32 20 -35 13 -13 59 -108 55 -114 -3 -3 -2 -4 2
-1 5 4 65 -88 68 -105 1 -3 12 -23 26 -45 13 -22 23 -43 21 -47 -1 -5 2 -8 6
-8 5 0 33 -39 62 -87 58 -96 267 -411 333 -503 23 -32 49 -68 57 -80 8 -12 34
-47 58 -77 23 -31 42 -59 42 -62 0 -4 8 -16 18 -27 9 -10 33 -39 52 -64 19
-25 38 -47 42 -48 5 -2 8 -10 8 -17 0 -8 6 -18 13 -22 7 -4 20 -19 29 -33 9
-14 25 -35 37 -47 12 -12 21 -26 21 -32 0 -5 4 -11 8 -13 4 -1 23 -23 42 -48
19 -25 40 -49 46 -55 5 -5 28 -32 49 -60 22 -27 44 -55 50 -61 5 -6 28 -33 50
-58 21 -26 48 -58 60 -70 26 -29 105 -123 125 -148 8 -10 33 -38 55 -61 22
-24 72 -78 110 -121 133 -149 497 -522 622 -638 28 -26 48 -49 45 -52 -3 -3
-1 -6 5 -6 6 0 37 -25 69 -56 33 -30 95 -88 138 -127 44 -40 97 -88 118 -108
21 -20 38 -35 38 -33 0 2 18 -15 40 -36 23 -22 43 -40 45 -40 3 0 20 -15 39
-32 18 -18 51 -47 72 -65 22 -18 53 -44 69 -58 17 -15 45 -39 64 -53 18 -15
43 -36 55 -47 12 -11 39 -33 61 -50 21 -16 46 -37 55 -45 8 -9 34 -29 55 -45
22 -17 54 -42 70 -57 17 -16 33 -28 37 -28 4 0 15 -8 25 -18 10 -10 68 -56
128 -102 61 -47 112 -88 113 -92 2 -5 10 -8 17 -8 7 0 15 -3 17 -7 2 -5 30
-28 63 -52 33 -25 62 -48 63 -53 2 -4 10 -8 18 -8 8 0 17 -7 20 -15 4 -8 11
-15 16 -15 6 0 24 -11 42 -25 47 -38 47 -38 101 -75 28 -19 52 -37 53 -42 2
-4 8 -8 14 -8 5 0 16 -6 23 -12 27 -24 41 -35 51 -39 5 -2 51 -33 102 -69 51
-36 101 -70 110 -75 28 -17 107 -69 112 -75 3 -3 23 -17 45 -31 22 -14 67 -43
100 -65 33 -21 70 -44 83 -51 12 -7 29 -19 38 -28 8 -8 22 -15 30 -15 8 0 14
-4 14 -10 0 -5 6 -10 13 -10 7 0 22 -8 33 -18 10 -9 32 -24 48 -32 57 -29 66
-35 66 -42 0 -5 7 -8 15 -8 8 0 15 -3 15 -8 0 -4 17 -15 39 -24 21 -9 45 -23
53 -30 15 -14 46 -33 90 -55 15 -8 30 -19 33 -24 4 -5 11 -7 16 -4 5 4 9 1 9
-4 0 -6 7 -11 15 -11 9 0 18 -6 21 -13 3 -8 10 -14 17 -14 7 0 46 -20 87 -45
72 -43 148 -85 235 -132 22 -11 42 -23 45 -26 3 -3 19 -12 36 -21 17 -9 64
-34 105 -55 41 -21 77 -43 81 -49 4 -5 8 -7 8 -3 0 6 85 -35 123 -59 7 -4 14
-8 17 -8 3 -1 34 -16 70 -35 36 -19 68 -33 73 -32 4 1 7 -2 7 -8 0 -6 3 -9 8
-8 4 1 72 -30 152 -69 220 -106 282 -135 440 -203 41 -18 93 -40 115 -50 22
-10 45 -19 50 -20 6 -1 19 -7 30 -13 11 -6 22 -12 25 -12 3 -1 19 -8 35 -15
17 -7 32 -14 35 -15 3 -1 16 -6 30 -12 55 -23 360 -142 430 -168 41 -15 86
-32 100 -37 14 -5 25 -9 25 -8 0 2 76 -26 110 -40 11 -5 92 -32 180 -61 88
-28 169 -55 180 -60 11 -5 29 -10 40 -12 11 -1 25 -5 30 -8 8 -5 25 -10 75
-24 32 -8 128 -37 140 -42 8 -3 20 -5 27 -4 6 1 14 -3 18 -9 3 -5 17 -10 31
-10 14 0 33 -4 43 -9 10 -6 28 -12 42 -14 13 -2 31 -6 39 -9 23 -9 104 -31
115 -33 27 -3 91 -18 100 -24 10 -5 17 -7 65 -16 14 -2 63 -13 110 -25 112
-27 209 -49 240 -54 14 -3 25 -5 25 -6 0 -1 9 -3 20 -4 11 -2 34 -6 50 -10 17
-3 41 -9 55 -11 14 -3 36 -7 50 -10 60 -12 96 -18 115 -20 11 -1 31 -5 45 -9
14 -3 39 -8 55 -10 56 -6 160 -23 160 -26 0 -1 20 -3 44 -6 25 -2 56 -7 70 -9
14 -3 55 -8 91 -11 35 -3 68 -8 73 -11 5 -3 39 -7 76 -9 36 -2 82 -7 101 -10
32 -5 59 -7 215 -19 86 -7 327 -18 383 -19 28 0 52 -4 52 -9 0 -4 6 -5 13 0
17 11 67 11 67 1 0 -5 4 -7 9 -3 5 3 114 8 243 11 263 6 361 11 528 29 36 4
76 9 90 10 25 2 104 13 150 20 14 2 45 6 70 10 25 4 59 9 75 12 17 3 41 6 55
8 14 1 32 5 40 8 13 5 42 10 120 23 14 2 36 7 50 11 40 10 48 12 135 32 119
28 384 107 450 136 17 7 48 18 70 25 22 7 49 18 60 24 11 6 25 11 30 11 10 1
35 12 155 68 36 17 71 30 78 30 6 0 12 4 12 8 0 4 10 11 23 15 31 10 277 147
349 195 33 21 62 39 64 39 3 0 12 6 19 13 30 26 44 37 50 37 11 0 198 147 279
220 65 58 253 248 286 289 14 17 37 45 53 61 15 15 27 31 27 35 0 3 5 11 10
18 6 7 24 27 40 46 17 19 30 38 30 42 0 4 6 14 14 22 21 21 126 185 126 197 0
5 5 10 10 10 6 0 10 6 10 14 0 8 4 16 9 18 5 1 11 12 13 22 1 11 13 31 25 44
13 13 21 28 18 32 -3 4 4 19 15 33 11 14 20 28 20 32 0 3 12 32 26 63 76 165
104 232 97 232 -3 0 0 7 7 15 7 8 9 15 5 15 -4 0 -2 7 5 15 7 8 9 15 5 15 -4
0 -3 6 2 13 11 13 51 136 59 182 3 16 7 32 10 37 7 11 31 106 38 149 3 20 8
42 10 50 3 8 7 30 10 49 3 19 8 46 10 60 8 42 16 97 22 152 3 29 7 64 10 78
23 141 24 707 0 722 -8 5 -7 8 2 8 7 0 11 3 9 8 -3 4 -8 39 -11 77 -4 39 -9
84 -11 100 -2 17 -6 57 -10 89 -4 33 -9 69 -11 80 -2 12 -7 37 -10 56 -3 19
-10 62 -16 95 -6 33 -11 67 -12 75 -1 9 -5 21 -10 28 -4 6 -5 12 -2 12 2 0 -2
23 -10 52 -7 29 -12 54 -9 56 2 2 -3 21 -10 43 -8 21 -12 39 -10 39 3 0 0 12
-6 28 -6 15 -13 38 -16 52 -9 48 -57 226 -70 260 -4 8 -7 17 -7 20 -1 7 -27
92 -34 110 -3 8 -6 20 -8 25 -15 50 -107 308 -131 365 -8 19 -19 44 -23 55
-91 227 -189 445 -202 445 -5 0 -7 4 -4 9 3 5 -21 62 -54 127 -33 66 -60 124
-60 130 0 7 -7 14 -15 18 -8 3 -15 12 -15 20 0 8 -14 38 -30 66 -16 28 -30 54
-30 58 0 5 -6 14 -12 20 -7 7 -13 16 -13 20 -1 7 -6 16 -45 82 -11 19 -27 50
-35 68 -9 17 -20 32 -27 32 -6 0 -9 3 -6 6 4 3 -13 38 -36 77 -46 78 -189 306
-216 347 -10 14 -48 72 -86 130 -38 58 -72 107 -75 110 -3 3 -27 37 -53 75
-59 88 -111 161 -141 200 -13 17 -67 89 -120 160 -54 72 -100 132 -104 135 -3
3 -25 30 -47 60 -23 30 -53 68 -68 83 -14 15 -26 31 -26 35 0 4 -17 26 -38 49
-42 47 -60 69 -117 138 -22 27 -52 62 -67 77 -16 15 -28 30 -28 33 0 3 -10 16
-22 29 -13 12 -45 48 -73 80 -51 58 -64 72 -215 238 -93 101 -604 613 -717
718 -60 55 -153 140 -249 225 -12 12 -44 39 -70 60 -25 22 -62 55 -80 73 -19
17 -39 32 -44 32 -6 0 -10 4 -10 8 0 5 -30 33 -67 63 -36 30 -76 63 -89 74
-12 11 -37 31 -54 45 -17 14 -42 34 -55 45 -12 11 -38 32 -56 47 -19 14 -64
50 -100 80 -37 29 -79 62 -95 73 -15 11 -32 25 -38 30 -9 9 -35 29 -111 88 -5
4 -28 21 -50 37 -22 16 -46 34 -52 40 -7 6 -15 10 -19 10 -3 -1 -11 5 -17 13
-19 22 -94 77 -106 77 -6 0 -11 3 -11 8 0 10 -155 122 -169 122 -6 0 -11 4
-11 8 0 5 -24 24 -52 42 -29 19 -55 37 -58 40 -3 4 -34 26 -70 50 -36 24 -66
47 -68 52 -2 4 -9 8 -15 9 -7 0 -32 16 -57 35 -25 18 -54 38 -65 43 -12 5 -27
16 -34 25 -7 9 -17 16 -22 16 -4 0 -44 25 -89 55 -44 30 -80 51 -80 47 0 -4
-4 -2 -8 4 -9 14 -96 71 -219 143 -32 19 -60 37 -63 41 -10 11 -60 40 -60 35
0 -4 -7 1 -16 9 -8 9 -22 16 -30 16 -8 0 -14 5 -14 12 0 6 -3 9 -6 5 -3 -3
-14 3 -25 14 -10 10 -26 19 -34 19 -8 0 -15 5 -15 10 0 6 -4 10 -9 10 -5 0
-39 18 -75 40 -36 22 -69 40 -73 40 -3 0 -14 6 -22 14 -9 7 -43 28 -76 46 -33
18 -76 42 -95 53 -19 12 -40 22 -47 23 -7 1 -20 9 -29 18 -14 15 -28 20 -46
17 -5 0 -8 3 -8 8 0 4 -37 27 -82 51 -46 23 -107 56 -136 72 -144 79 -540 272
-551 268 -2 -1 -7 3 -10 8 -6 9 -462 218 -486 222 -2 1 -33 14 -67 29 -63 28
-92 39 -106 42 -4 0 -16 6 -27 12 -11 6 -22 12 -25 12 -3 1 -23 9 -45 19 -22
10 -47 19 -56 21 -9 2 -25 8 -35 13 -23 12 -80 35 -114 47 -6 2 -30 11 -75 28
-16 7 -32 12 -35 13 -3 0 -18 6 -35 13 -16 6 -43 16 -60 22 -16 6 -39 15 -50
19 -50 21 -233 83 -257 87 -16 3 -28 10 -28 15 0 5 -4 7 -8 4 -5 -3 -20 1 -33
8 -14 7 -33 12 -42 10 -9 -1 -17 2 -17 7 0 5 -3 8 -7 7 -5 -1 -57 14 -118 33
-123 40 -218 69 -237 73 -30 6 -74 19 -83 25 -5 3 -12 6 -15 6 -19 3 -79 18
-100 24 -42 14 -104 31 -125 35 -11 2 -27 5 -35 8 -33 12 -115 33 -170 44 -14
3 -34 8 -45 11 -11 3 -29 7 -40 9 -11 2 -29 5 -40 8 -77 21 -299 67 -332 70
-13 0 -23 3 -23 6 0 3 -8 6 -17 7 -10 0 -34 4 -53 7 -19 4 -47 8 -61 10 -14 1
-30 6 -36 9 -6 4 -36 8 -67 9 -31 2 -56 6 -56 9 0 4 -26 9 -58 13 -31 4 -71 9
-87 12 -17 3 -46 7 -65 9 -19 2 -35 4 -35 5 0 3 -29 7 -90 14 -33 4 -76 9 -95
11 -19 2 -60 7 -90 10 -30 3 -71 7 -90 10 -51 7 -194 17 -272 19 -38 0 -68 3
-68 6 0 3 -39 6 -88 7 -48 1 -105 3 -127 5 -22 1 -46 -1 -53 -6 -6 -4 -12 -3
-12 1 0 10 -281 11 -297 0 -6 -4 -14 -4 -17 1 -5 9 -73 9 -82 -1 -3 -3 -19 -1
-35 3 -16 5 -29 6 -29 2z"/>
</g>
</svg>
